<?xml version="1.0" encoding="UTF-8" ?>
<svg version="1.1" width="110" height="110" xmlns="http://www.w3.org/2000/svg" shape-rendering="crispEdges">
<rect x="0" y="0" width="10" height="10" fill="#FFA300" />
<rect x="10" y="0" width="10" height="10" fill="#FFA300" />
<rect x="20" y="0" width="10" height="10" fill="#FFA300" />
<rect x="30" y="0" width="10" height="10" fill="#FFA300" />
<rect x="40" y="0" width="10" height="10" fill="#FFA300" />
<rect x="50" y="0" width="10" height="10" fill="#FFA300" />
<rect x="60" y="0" width="10" height="10" fill="#FFA300" />
<rect x="70" y="0" width="10" height="10" fill="#FFA300" />
<rect x="80" y="0" width="10" height="10" fill="#FFA300" />
<rect x="90" y="0" width="10" height="10" fill="#FFA300" />
<rect x="100" y="0" width="10" height="10" fill="#FFA300" />
<rect x="0" y="10" width="10" height="10" fill="#FFA300" />
<rect x="10" y="10" width="10" height="10" fill="#FFA300" />
<rect x="20" y="10" width="10" height="10" fill="#FFA300" />
<rect x="30" y="10" width="10" height="10" fill="#FFA300" />
<rect x="40" y="10" width="10" height="10" fill="#FFA300" />
<rect x="50" y="10" width="10" height="10" fill="#FFA300" />
<rect x="60" y="10" width="10" height="10" fill="#FFA300" />
<rect x="70" y="10" width="10" height="10" fill="#FFA300" />
<rect x="80" y="10" width="10" height="10" fill="#FFA300" />
<rect x="90" y="10" width="10" height="10" fill="#FFA300" />
<rect x="100" y="10" width="10" height="10" fill="#FFA300" />
<rect x="0" y="20" width="10" height="10" fill="#FFA300" />
<rect x="10" y="20" width="10" height="10" fill="#FFA300" />
<rect x="20" y="20" width="10" height="10" fill="#FFA300" />
<rect x="30" y="20" width="10" height="10" fill="#FFA300" />
<rect x="40" y="20" width="10" height="10" fill="#FFA300" />
<rect x="50" y="20" width="10" height="10" fill="#FFA300" />
<rect x="60" y="20" width="10" height="10" fill="#FFA300" />
<rect x="70" y="20" width="10" height="10" fill="#FFA300" />
<rect x="80" y="20" width="10" height="10" fill="#FFA300" />
<rect x="90" y="20" width="10" height="10" fill="#FFA300" />
<rect x="100" y="20" width="10" height="10" fill="#FFA300" />
<rect x="0" y="30" width="10" height="10" fill="#FFA300" />
<rect x="10" y="30" width="10" height="10" fill="#FFA300" />
<rect x="20" y="30" width="10" height="10" fill="#FFA300" />
<rect x="0" y="40" width="10" height="10" fill="#FFA300" />
<rect x="10" y="40" width="10" height="10" fill="#FFA300" />
<rect x="20" y="40" width="10" height="10" fill="#FFA300" />
<rect x="40" y="40" width="10" height="10" fill="#00E436" />
<rect x="50" y="40" width="10" height="10" fill="#00E436" />
<rect x="60" y="40" width="10" height="10" fill="#00E436" />
<rect x="80" y="40" width="10" height="10" fill="#FF004D" />
<rect x="90" y="40" width="10" height="10" fill="#FF004D" />
<rect x="100" y="40" width="10" height="10" fill="#FF004D" />
<rect x="0" y="50" width="10" height="10" fill="#FFA300" />
<rect x="10" y="50" width="10" height="10" fill="#FFA300" />
<rect x="20" y="50" width="10" height="10" fill="#FFA300" />
<rect x="40" y="50" width="10" height="10" fill="#00E436" />
<rect x="50" y="50" width="10" height="10" fill="#00E436" />
<rect x="60" y="50" width="10" height="10" fill="#00E436" />
<rect x="80" y="50" width="10" height="10" fill="#FF004D" />
<rect x="90" y="50" width="10" height="10" fill="#FF004D" />
<rect x="100" y="50" width="10" height="10" fill="#FF004D" />
<rect x="0" y="60" width="10" height="10" fill="#FFA300" />
<rect x="10" y="60" width="10" height="10" fill="#FFA300" />
<rect x="20" y="60" width="10" height="10" fill="#FFA300" />
<rect x="40" y="60" width="10" height="10" fill="#00E436" />
<rect x="50" y="60" width="10" height="10" fill="#00E436" />
<rect x="60" y="60" width="10" height="10" fill="#00E436" />
<rect x="80" y="60" width="10" height="10" fill="#FF004D" />
<rect x="90" y="60" width="10" height="10" fill="#FF004D" />
<rect x="100" y="60" width="10" height="10" fill="#FF004D" />
<rect x="80" y="70" width="10" height="10" fill="#FF004D" />
<rect x="90" y="70" width="10" height="10" fill="#FF004D" />
<rect x="100" y="70" width="10" height="10" fill="#FF004D" />
<rect x="0" y="80" width="10" height="10" fill="#FF004D" />
<rect x="10" y="80" width="10" height="10" fill="#FF004D" />
<rect x="20" y="80" width="10" height="10" fill="#FF004D" />
<rect x="30" y="80" width="10" height="10" fill="#FF004D" />
<rect x="40" y="80" width="10" height="10" fill="#FF004D" />
<rect x="50" y="80" width="10" height="10" fill="#FF004D" />
<rect x="60" y="80" width="10" height="10" fill="#FF004D" />
<rect x="70" y="80" width="10" height="10" fill="#FF004D" />
<rect x="80" y="80" width="10" height="10" fill="#FF004D" />
<rect x="90" y="80" width="10" height="10" fill="#FF004D" />
<rect x="100" y="80" width="10" height="10" fill="#FF004D" />
<rect x="0" y="90" width="10" height="10" fill="#FF004D" />
<rect x="10" y="90" width="10" height="10" fill="#FF004D" />
<rect x="20" y="90" width="10" height="10" fill="#FF004D" />
<rect x="30" y="90" width="10" height="10" fill="#FF004D" />
<rect x="40" y="90" width="10" height="10" fill="#FF004D" />
<rect x="50" y="90" width="10" height="10" fill="#FF004D" />
<rect x="60" y="90" width="10" height="10" fill="#FF004D" />
<rect x="70" y="90" width="10" height="10" fill="#FF004D" />
<rect x="80" y="90" width="10" height="10" fill="#FF004D" />
<rect x="90" y="90" width="10" height="10" fill="#FF004D" />
<rect x="100" y="90" width="10" height="10" fill="#FF004D" />
<rect x="0" y="100" width="10" height="10" fill="#FF004D" />
<rect x="10" y="100" width="10" height="10" fill="#FF004D" />
<rect x="20" y="100" width="10" height="10" fill="#FF004D" />
<rect x="30" y="100" width="10" height="10" fill="#FF004D" />
<rect x="40" y="100" width="10" height="10" fill="#FF004D" />
<rect x="50" y="100" width="10" height="10" fill="#FF004D" />
<rect x="60" y="100" width="10" height="10" fill="#FF004D" />
<rect x="70" y="100" width="10" height="10" fill="#FF004D" />
<rect x="80" y="100" width="10" height="10" fill="#FF004D" />
<rect x="90" y="100" width="10" height="10" fill="#FF004D" />
<rect x="100" y="100" width="10" height="10" fill="#FF004D" />
</svg>