<?xml version="1.0" encoding="UTF-8" ?>
<svg version="1.1" width="530" height="110" xmlns="http://www.w3.org/2000/svg" shape-rendering="crispEdges">
<rect x="0" y="0" width="10" height="10" fill="#FFA300" />
<rect x="10" y="0" width="10" height="10" fill="#FFA300" />
<rect x="20" y="0" width="10" height="10" fill="#FFA300" />
<rect x="30" y="0" width="10" height="10" fill="#FFA300" />
<rect x="40" y="0" width="10" height="10" fill="#FFA300" />
<rect x="50" y="0" width="10" height="10" fill="#FFA300" />
<rect x="60" y="0" width="10" height="10" fill="#FFA300" />
<rect x="70" y="0" width="10" height="10" fill="#FFA300" />
<rect x="80" y="0" width="10" height="10" fill="#FFA300" />
<rect x="90" y="0" width="10" height="10" fill="#FFA300" />
<rect x="100" y="0" width="10" height="10" fill="#FFA300" />
<rect x="130" y="0" width="10" height="10" fill="#FFF1E8" />
<rect x="140" y="0" width="10" height="10" fill="#FFF1E8" />
<rect x="150" y="0" width="10" height="10" fill="#FFF1E8" />
<rect x="480" y="0" width="10" height="10" fill="#FFF1E8" />
<rect x="490" y="0" width="10" height="10" fill="#FFF1E8" />
<rect x="0" y="10" width="10" height="10" fill="#FFA300" />
<rect x="10" y="10" width="10" height="10" fill="#FFA300" />
<rect x="20" y="10" width="10" height="10" fill="#FFA300" />
<rect x="30" y="10" width="10" height="10" fill="#FFA300" />
<rect x="40" y="10" width="10" height="10" fill="#FFA300" />
<rect x="50" y="10" width="10" height="10" fill="#FFA300" />
<rect x="60" y="10" width="10" height="10" fill="#FFA300" />
<rect x="70" y="10" width="10" height="10" fill="#FFA300" />
<rect x="80" y="10" width="10" height="10" fill="#FFA300" />
<rect x="90" y="10" width="10" height="10" fill="#FFA300" />
<rect x="100" y="10" width="10" height="10" fill="#FFA300" />
<rect x="130" y="10" width="10" height="10" fill="#FFF1E8" />
<rect x="140" y="10" width="10" height="10" fill="#FFF1E8" />
<rect x="150" y="10" width="10" height="10" fill="#FFF1E8" />
<rect x="480" y="10" width="10" height="10" fill="#FFF1E8" />
<rect x="490" y="10" width="10" height="10" fill="#FFF1E8" />
<rect x="0" y="20" width="10" height="10" fill="#FFA300" />
<rect x="10" y="20" width="10" height="10" fill="#FFA300" />
<rect x="20" y="20" width="10" height="10" fill="#FFA300" />
<rect x="30" y="20" width="10" height="10" fill="#FFA300" />
<rect x="40" y="20" width="10" height="10" fill="#FFA300" />
<rect x="50" y="20" width="10" height="10" fill="#FFA300" />
<rect x="60" y="20" width="10" height="10" fill="#FFA300" />
<rect x="70" y="20" width="10" height="10" fill="#FFA300" />
<rect x="80" y="20" width="10" height="10" fill="#FFA300" />
<rect x="90" y="20" width="10" height="10" fill="#FFA300" />
<rect x="100" y="20" width="10" height="10" fill="#FFA300" />
<rect x="130" y="20" width="10" height="10" fill="#FFF1E8" />
<rect x="140" y="20" width="10" height="10" fill="#FFF1E8" />
<rect x="150" y="20" width="10" height="10" fill="#FFF1E8" />
<rect x="480" y="20" width="10" height="10" fill="#FFF1E8" />
<rect x="490" y="20" width="10" height="10" fill="#FFF1E8" />
<rect x="0" y="30" width="10" height="10" fill="#FFA300" />
<rect x="10" y="30" width="10" height="10" fill="#FFA300" />
<rect x="20" y="30" width="10" height="10" fill="#FFA300" />
<rect x="130" y="30" width="10" height="10" fill="#FFF1E8" />
<rect x="140" y="30" width="10" height="10" fill="#FFF1E8" />
<rect x="150" y="30" width="10" height="10" fill="#FFF1E8" />
<rect x="190" y="30" width="10" height="10" fill="#FFF1E8" />
<rect x="200" y="30" width="10" height="10" fill="#FFF1E8" />
<rect x="210" y="30" width="10" height="10" fill="#FFF1E8" />
<rect x="220" y="30" width="10" height="10" fill="#FFF1E8" />
<rect x="230" y="30" width="10" height="10" fill="#FFF1E8" />
<rect x="240" y="30" width="10" height="10" fill="#FFF1E8" />
<rect x="290" y="30" width="10" height="10" fill="#FFF1E8" />
<rect x="300" y="30" width="10" height="10" fill="#FFF1E8" />
<rect x="310" y="30" width="10" height="10" fill="#FFF1E8" />
<rect x="320" y="30" width="10" height="10" fill="#FFF1E8" />
<rect x="340" y="30" width="10" height="10" fill="#FFF1E8" />
<rect x="350" y="30" width="10" height="10" fill="#FFF1E8" />
<rect x="380" y="30" width="10" height="10" fill="#FF004D" />
<rect x="390" y="30" width="10" height="10" fill="#FF004D" />
<rect x="400" y="30" width="10" height="10" fill="#FF004D" />
<rect x="410" y="30" width="10" height="10" fill="#FF004D" />
<rect x="420" y="30" width="10" height="10" fill="#FF004D" />
<rect x="430" y="30" width="10" height="10" fill="#FF004D" />
<rect x="440" y="30" width="10" height="10" fill="#FF004D" />
<rect x="450" y="30" width="10" height="10" fill="#FFF1E8" />
<rect x="460" y="30" width="10" height="10" fill="#FF004D" />
<rect x="470" y="30" width="10" height="10" fill="#FFF1E8" />
<rect x="480" y="30" width="10" height="10" fill="#FFF1E8" />
<rect x="490" y="30" width="10" height="10" fill="#FFF1E8" />
<rect x="500" y="30" width="10" height="10" fill="#FFF1E8" />
<rect x="510" y="30" width="10" height="10" fill="#FFF1E8" />
<rect x="520" y="30" width="10" height="10" fill="#FFF1E8" />
<rect x="0" y="40" width="10" height="10" fill="#FFA300" />
<rect x="10" y="40" width="10" height="10" fill="#FFA300" />
<rect x="20" y="40" width="10" height="10" fill="#FFA300" />
<rect x="40" y="40" width="10" height="10" fill="#00E436" />
<rect x="50" y="40" width="10" height="10" fill="#00E436" />
<rect x="60" y="40" width="10" height="10" fill="#00E436" />
<rect x="80" y="40" width="10" height="10" fill="#FF004D" />
<rect x="90" y="40" width="10" height="10" fill="#FF004D" />
<rect x="100" y="40" width="10" height="10" fill="#FF004D" />
<rect x="130" y="40" width="10" height="10" fill="#FFF1E8" />
<rect x="140" y="40" width="10" height="10" fill="#FFF1E8" />
<rect x="150" y="40" width="10" height="10" fill="#FFF1E8" />
<rect x="180" y="40" width="10" height="10" fill="#FFF1E8" />
<rect x="190" y="40" width="10" height="10" fill="#FFF1E8" />
<rect x="200" y="40" width="10" height="10" fill="#FFF1E8" />
<rect x="210" y="40" width="10" height="10" fill="#FFF1E8" />
<rect x="220" y="40" width="10" height="10" fill="#FFF1E8" />
<rect x="230" y="40" width="10" height="10" fill="#FFF1E8" />
<rect x="240" y="40" width="10" height="10" fill="#FFF1E8" />
<rect x="250" y="40" width="10" height="10" fill="#FFF1E8" />
<rect x="280" y="40" width="10" height="10" fill="#FFF1E8" />
<rect x="290" y="40" width="10" height="10" fill="#FFF1E8" />
<rect x="300" y="40" width="10" height="10" fill="#FFF1E8" />
<rect x="310" y="40" width="10" height="10" fill="#FFF1E8" />
<rect x="320" y="40" width="10" height="10" fill="#FFF1E8" />
<rect x="330" y="40" width="10" height="10" fill="#FFF1E8" />
<rect x="340" y="40" width="10" height="10" fill="#FFF1E8" />
<rect x="350" y="40" width="10" height="10" fill="#FFF1E8" />
<rect x="380" y="40" width="10" height="10" fill="#FF004D" />
<rect x="390" y="40" width="10" height="10" fill="#FF004D" />
<rect x="400" y="40" width="10" height="10" fill="#FF004D" />
<rect x="410" y="40" width="10" height="10" fill="#FF004D" />
<rect x="420" y="40" width="10" height="10" fill="#FF004D" />
<rect x="430" y="40" width="10" height="10" fill="#FF004D" />
<rect x="440" y="40" width="10" height="10" fill="#FFF1E8" />
<rect x="450" y="40" width="10" height="10" fill="#FF004D" />
<rect x="460" y="40" width="10" height="10" fill="#FFF1E8" />
<rect x="470" y="40" width="10" height="10" fill="#FFF1E8" />
<rect x="480" y="40" width="10" height="10" fill="#FFF1E8" />
<rect x="490" y="40" width="10" height="10" fill="#FFF1E8" />
<rect x="500" y="40" width="10" height="10" fill="#FFF1E8" />
<rect x="510" y="40" width="10" height="10" fill="#FFF1E8" />
<rect x="0" y="50" width="10" height="10" fill="#FFA300" />
<rect x="10" y="50" width="10" height="10" fill="#FFA300" />
<rect x="20" y="50" width="10" height="10" fill="#FFA300" />
<rect x="40" y="50" width="10" height="10" fill="#00E436" />
<rect x="50" y="50" width="10" height="10" fill="#00E436" />
<rect x="60" y="50" width="10" height="10" fill="#00E436" />
<rect x="80" y="50" width="10" height="10" fill="#FF004D" />
<rect x="90" y="50" width="10" height="10" fill="#FF004D" />
<rect x="100" y="50" width="10" height="10" fill="#FF004D" />
<rect x="130" y="50" width="10" height="10" fill="#FFF1E8" />
<rect x="140" y="50" width="10" height="10" fill="#FFF1E8" />
<rect x="150" y="50" width="10" height="10" fill="#FFF1E8" />
<rect x="180" y="50" width="10" height="10" fill="#FFF1E8" />
<rect x="190" y="50" width="10" height="10" fill="#FFF1E8" />
<rect x="200" y="50" width="10" height="10" fill="#FFF1E8" />
<rect x="230" y="50" width="10" height="10" fill="#FFF1E8" />
<rect x="240" y="50" width="10" height="10" fill="#FFF1E8" />
<rect x="250" y="50" width="10" height="10" fill="#FFF1E8" />
<rect x="280" y="50" width="10" height="10" fill="#FFF1E8" />
<rect x="290" y="50" width="10" height="10" fill="#FFF1E8" />
<rect x="300" y="50" width="10" height="10" fill="#FFF1E8" />
<rect x="330" y="50" width="10" height="10" fill="#FFF1E8" />
<rect x="340" y="50" width="10" height="10" fill="#FFF1E8" />
<rect x="350" y="50" width="10" height="10" fill="#FFF1E8" />
<rect x="380" y="50" width="10" height="10" fill="#FF004D" />
<rect x="390" y="50" width="10" height="10" fill="#FF004D" />
<rect x="480" y="50" width="10" height="10" fill="#FFF1E8" />
<rect x="490" y="50" width="10" height="10" fill="#FFF1E8" />
<rect x="0" y="60" width="10" height="10" fill="#FFA300" />
<rect x="10" y="60" width="10" height="10" fill="#FFA300" />
<rect x="20" y="60" width="10" height="10" fill="#FFA300" />
<rect x="40" y="60" width="10" height="10" fill="#00E436" />
<rect x="50" y="60" width="10" height="10" fill="#00E436" />
<rect x="60" y="60" width="10" height="10" fill="#00E436" />
<rect x="80" y="60" width="10" height="10" fill="#FF004D" />
<rect x="90" y="60" width="10" height="10" fill="#FF004D" />
<rect x="100" y="60" width="10" height="10" fill="#FF004D" />
<rect x="130" y="60" width="10" height="10" fill="#FFF1E8" />
<rect x="140" y="60" width="10" height="10" fill="#FFF1E8" />
<rect x="150" y="60" width="10" height="10" fill="#FFF1E8" />
<rect x="180" y="60" width="10" height="10" fill="#FFF1E8" />
<rect x="190" y="60" width="10" height="10" fill="#FFF1E8" />
<rect x="240" y="60" width="10" height="10" fill="#FFF1E8" />
<rect x="250" y="60" width="10" height="10" fill="#FFF1E8" />
<rect x="280" y="60" width="10" height="10" fill="#FFF1E8" />
<rect x="290" y="60" width="10" height="10" fill="#FFF1E8" />
<rect x="340" y="60" width="10" height="10" fill="#FFF1E8" />
<rect x="350" y="60" width="10" height="10" fill="#FFF1E8" />
<rect x="380" y="60" width="10" height="10" fill="#FF004D" />
<rect x="390" y="60" width="10" height="10" fill="#FF004D" />
<rect x="410" y="60" width="10" height="10" fill="#00E436" />
<rect x="420" y="60" width="10" height="10" fill="#00E436" />
<rect x="440" y="60" width="10" height="10" fill="#FFA300" />
<rect x="450" y="60" width="10" height="10" fill="#FFA300" />
<rect x="480" y="60" width="10" height="10" fill="#FFF1E8" />
<rect x="490" y="60" width="10" height="10" fill="#FFF1E8" />
<rect x="80" y="70" width="10" height="10" fill="#FF004D" />
<rect x="90" y="70" width="10" height="10" fill="#FF004D" />
<rect x="100" y="70" width="10" height="10" fill="#FF004D" />
<rect x="130" y="70" width="10" height="10" fill="#FFF1E8" />
<rect x="140" y="70" width="10" height="10" fill="#FFF1E8" />
<rect x="150" y="70" width="10" height="10" fill="#FFF1E8" />
<rect x="180" y="70" width="10" height="10" fill="#FFF1E8" />
<rect x="190" y="70" width="10" height="10" fill="#FFF1E8" />
<rect x="240" y="70" width="10" height="10" fill="#FFF1E8" />
<rect x="250" y="70" width="10" height="10" fill="#FFF1E8" />
<rect x="280" y="70" width="10" height="10" fill="#FFF1E8" />
<rect x="290" y="70" width="10" height="10" fill="#FFF1E8" />
<rect x="340" y="70" width="10" height="10" fill="#FFF1E8" />
<rect x="350" y="70" width="10" height="10" fill="#FFF1E8" />
<rect x="380" y="70" width="10" height="10" fill="#FF004D" />
<rect x="390" y="70" width="10" height="10" fill="#FF004D" />
<rect x="410" y="70" width="10" height="10" fill="#00E436" />
<rect x="420" y="70" width="10" height="10" fill="#00E436" />
<rect x="440" y="70" width="10" height="10" fill="#FFA300" />
<rect x="450" y="70" width="10" height="10" fill="#FFA300" />
<rect x="480" y="70" width="10" height="10" fill="#FFF1E8" />
<rect x="490" y="70" width="10" height="10" fill="#FFF1E8" />
<rect x="0" y="80" width="10" height="10" fill="#FF004D" />
<rect x="10" y="80" width="10" height="10" fill="#FF004D" />
<rect x="20" y="80" width="10" height="10" fill="#FF004D" />
<rect x="30" y="80" width="10" height="10" fill="#FF004D" />
<rect x="40" y="80" width="10" height="10" fill="#FF004D" />
<rect x="50" y="80" width="10" height="10" fill="#FF004D" />
<rect x="60" y="80" width="10" height="10" fill="#FF004D" />
<rect x="70" y="80" width="10" height="10" fill="#FF004D" />
<rect x="80" y="80" width="10" height="10" fill="#FF004D" />
<rect x="90" y="80" width="10" height="10" fill="#FF004D" />
<rect x="100" y="80" width="10" height="10" fill="#FF004D" />
<rect x="130" y="80" width="10" height="10" fill="#FFF1E8" />
<rect x="140" y="80" width="10" height="10" fill="#FFF1E8" />
<rect x="150" y="80" width="10" height="10" fill="#FFF1E8" />
<rect x="180" y="80" width="10" height="10" fill="#FFF1E8" />
<rect x="190" y="80" width="10" height="10" fill="#FFF1E8" />
<rect x="200" y="80" width="10" height="10" fill="#FFF1E8" />
<rect x="230" y="80" width="10" height="10" fill="#FFF1E8" />
<rect x="240" y="80" width="10" height="10" fill="#FFF1E8" />
<rect x="250" y="80" width="10" height="10" fill="#FFF1E8" />
<rect x="280" y="80" width="10" height="10" fill="#FFF1E8" />
<rect x="290" y="80" width="10" height="10" fill="#FFF1E8" />
<rect x="300" y="80" width="10" height="10" fill="#FFF1E8" />
<rect x="330" y="80" width="10" height="10" fill="#FFF1E8" />
<rect x="340" y="80" width="10" height="10" fill="#FFF1E8" />
<rect x="350" y="80" width="10" height="10" fill="#FFF1E8" />
<rect x="440" y="80" width="10" height="10" fill="#FFA300" />
<rect x="450" y="80" width="10" height="10" fill="#FFA300" />
<rect x="480" y="80" width="10" height="10" fill="#FFF1E8" />
<rect x="490" y="80" width="10" height="10" fill="#FFF1E8" />
<rect x="0" y="90" width="10" height="10" fill="#FF004D" />
<rect x="10" y="90" width="10" height="10" fill="#FF004D" />
<rect x="20" y="90" width="10" height="10" fill="#FF004D" />
<rect x="30" y="90" width="10" height="10" fill="#FF004D" />
<rect x="40" y="90" width="10" height="10" fill="#FF004D" />
<rect x="50" y="90" width="10" height="10" fill="#FF004D" />
<rect x="60" y="90" width="10" height="10" fill="#FF004D" />
<rect x="70" y="90" width="10" height="10" fill="#FF004D" />
<rect x="80" y="90" width="10" height="10" fill="#FF004D" />
<rect x="90" y="90" width="10" height="10" fill="#FF004D" />
<rect x="100" y="90" width="10" height="10" fill="#FF004D" />
<rect x="130" y="90" width="10" height="10" fill="#FFF1E8" />
<rect x="140" y="90" width="10" height="10" fill="#FFF1E8" />
<rect x="150" y="90" width="10" height="10" fill="#FFF1E8" />
<rect x="180" y="90" width="10" height="10" fill="#FFF1E8" />
<rect x="190" y="90" width="10" height="10" fill="#FFF1E8" />
<rect x="200" y="90" width="10" height="10" fill="#FFF1E8" />
<rect x="210" y="90" width="10" height="10" fill="#FFF1E8" />
<rect x="220" y="90" width="10" height="10" fill="#FFF1E8" />
<rect x="230" y="90" width="10" height="10" fill="#FFF1E8" />
<rect x="240" y="90" width="10" height="10" fill="#FFF1E8" />
<rect x="250" y="90" width="10" height="10" fill="#FFF1E8" />
<rect x="280" y="90" width="10" height="10" fill="#FFF1E8" />
<rect x="290" y="90" width="10" height="10" fill="#FFF1E8" />
<rect x="300" y="90" width="10" height="10" fill="#FFF1E8" />
<rect x="310" y="90" width="10" height="10" fill="#FFF1E8" />
<rect x="320" y="90" width="10" height="10" fill="#FFF1E8" />
<rect x="330" y="90" width="10" height="10" fill="#FFF1E8" />
<rect x="340" y="90" width="10" height="10" fill="#FFF1E8" />
<rect x="350" y="90" width="10" height="10" fill="#FFF1E8" />
<rect x="360" y="90" width="10" height="10" fill="#FFF1E8" />
<rect x="370" y="90" width="10" height="10" fill="#FFF1E8" />
<rect x="380" y="90" width="10" height="10" fill="#FFA300" />
<rect x="390" y="90" width="10" height="10" fill="#FFF1E8" />
<rect x="400" y="90" width="10" height="10" fill="#FFA300" />
<rect x="410" y="90" width="10" height="10" fill="#FFA300" />
<rect x="420" y="90" width="10" height="10" fill="#FFA300" />
<rect x="430" y="90" width="10" height="10" fill="#FFA300" />
<rect x="440" y="90" width="10" height="10" fill="#FFA300" />
<rect x="450" y="90" width="10" height="10" fill="#FFA300" />
<rect x="480" y="90" width="10" height="10" fill="#FFF1E8" />
<rect x="490" y="90" width="10" height="10" fill="#FFF1E8" />
<rect x="500" y="90" width="10" height="10" fill="#FFF1E8" />
<rect x="0" y="100" width="10" height="10" fill="#FF004D" />
<rect x="10" y="100" width="10" height="10" fill="#FF004D" />
<rect x="20" y="100" width="10" height="10" fill="#FF004D" />
<rect x="30" y="100" width="10" height="10" fill="#FF004D" />
<rect x="40" y="100" width="10" height="10" fill="#FF004D" />
<rect x="50" y="100" width="10" height="10" fill="#FF004D" />
<rect x="60" y="100" width="10" height="10" fill="#FF004D" />
<rect x="70" y="100" width="10" height="10" fill="#FF004D" />
<rect x="80" y="100" width="10" height="10" fill="#FF004D" />
<rect x="90" y="100" width="10" height="10" fill="#FF004D" />
<rect x="100" y="100" width="10" height="10" fill="#FF004D" />
<rect x="130" y="100" width="10" height="10" fill="#FFF1E8" />
<rect x="140" y="100" width="10" height="10" fill="#FFF1E8" />
<rect x="150" y="100" width="10" height="10" fill="#FFF1E8" />
<rect x="190" y="100" width="10" height="10" fill="#FFF1E8" />
<rect x="200" y="100" width="10" height="10" fill="#FFF1E8" />
<rect x="210" y="100" width="10" height="10" fill="#FFF1E8" />
<rect x="220" y="100" width="10" height="10" fill="#FFF1E8" />
<rect x="230" y="100" width="10" height="10" fill="#FFF1E8" />
<rect x="240" y="100" width="10" height="10" fill="#FFF1E8" />
<rect x="290" y="100" width="10" height="10" fill="#FFF1E8" />
<rect x="300" y="100" width="10" height="10" fill="#FFF1E8" />
<rect x="310" y="100" width="10" height="10" fill="#FFF1E8" />
<rect x="320" y="100" width="10" height="10" fill="#FFF1E8" />
<rect x="340" y="100" width="10" height="10" fill="#FFF1E8" />
<rect x="350" y="100" width="10" height="10" fill="#FFF1E8" />
<rect x="360" y="100" width="10" height="10" fill="#FFF1E8" />
<rect x="370" y="100" width="10" height="10" fill="#FFA300" />
<rect x="380" y="100" width="10" height="10" fill="#FFF1E8" />
<rect x="390" y="100" width="10" height="10" fill="#FFA300" />
<rect x="400" y="100" width="10" height="10" fill="#FFA300" />
<rect x="410" y="100" width="10" height="10" fill="#FFA300" />
<rect x="420" y="100" width="10" height="10" fill="#FFA300" />
<rect x="430" y="100" width="10" height="10" fill="#FFA300" />
<rect x="440" y="100" width="10" height="10" fill="#FFA300" />
<rect x="450" y="100" width="10" height="10" fill="#FFA300" />
<rect x="490" y="100" width="10" height="10" fill="#FFF1E8" />
<rect x="500" y="100" width="10" height="10" fill="#FFF1E8" />
</svg>